HIERARCHY
ROOT Hips
{
	OFFSET 55.062599 -34.402916 94.440895
	CHANNELS 6 Xposition Yposition Zposition Xrotation Yrotation Zrotation
	JOINT spine
	{
		OFFSET 0.000000 -0.448574 7.800591
		CHANNELS 3 Xrotation Yrotation Zrotation
		JOINT spine1
		{
			OFFSET 0.000000 -0.000004 10.136398
			CHANNELS 3 Xrotation Yrotation Zrotation
			JOINT spine2
			{
				OFFSET 0.000000 0.000000 9.712509
				CHANNELS 3 Xrotation Yrotation Zrotation
				JOINT Neck
				{
					OFFSET 0.000000 -1.188873 24.936111
					CHANNELS 3 Xrotation Yrotation Zrotation
					JOINT Head
					{
						OFFSET 0.000000 -0.000004 7.533844
						CHANNELS 3 Xrotation Yrotation Zrotation
						End Site
						{
							OFFSET 0.000000 6.014017 18.236099
						}
					}
				}
				JOINT RightShoulder
				{
					OFFSET -4.089649 0.569454 10.488800
					CHANNELS 3 Xrotation Yrotation Zrotation
					JOINT RightArm
					{
						OFFSET 0.000000 0.000000 13.757004
						CHANNELS 3 Xrotation Yrotation Zrotation
						JOINT RightArmRoll
						{
							OFFSET 0.000000 -0.000004 6.944778
							CHANNELS 3 Xrotation Yrotation Zrotation
							JOINT RightForeArm
							{
								OFFSET 0.000000 0.000000 20.227692
								CHANNELS 3 Xrotation Yrotation Zrotation
								JOINT RightForeArmRoll
								{
									OFFSET 0.000000 -0.000004 7.793121
									CHANNELS 3 Xrotation Yrotation Zrotation
									JOINT RightHand
									{
										OFFSET 0.000000 0.000000 15.639099
										CHANNELS 3 Xrotation Yrotation Zrotation
										End Site
										{
											OFFSET 0.000000 0.000000 0.100006
										}
									}
								}
							}
						}
					}
				}
				JOINT LeftShoulder
				{
					OFFSET 4.089649 0.569454 10.488800
					CHANNELS 3 Xrotation Yrotation Zrotation
					JOINT LeftArm
					{
						OFFSET 0.000000 0.000000 13.757004
						CHANNELS 3 Xrotation Yrotation Zrotation
						JOINT LeftArmRoll
						{
							OFFSET 0.000000 -0.000004 6.944778
							CHANNELS 3 Xrotation Yrotation Zrotation
							JOINT LeftForeArm
							{
								OFFSET 0.000000 0.000000 20.227692
								CHANNELS 3 Xrotation Yrotation Zrotation
								JOINT LeftForeArmRoll
								{
									OFFSET 0.000000 -0.000004 7.793121
									CHANNELS 3 Xrotation Yrotation Zrotation
									JOINT LeftHand
									{
										OFFSET 0.000000 0.000000 15.639099
										CHANNELS 3 Xrotation Yrotation Zrotation
										End Site
										{
											OFFSET 0.000000 0.000000 0.100006
										}
									}
								}
							}
						}
					}
				}
			}
		}
	}
	JOINT RightUpLeg
	{
		OFFSET -6.914162 1.063580 -1.267883
		CHANNELS 3 Xrotation Yrotation Zrotation
		JOINT RightUpLegRoll
		{
			OFFSET 0.000000 -0.000004 18.337799
			CHANNELS 3 Xrotation Yrotation Zrotation
			JOINT RightLeg
			{
				OFFSET 0.000000 0.000004 -22.708496
				CHANNELS 3 Xrotation Yrotation Zrotation
				JOINT RightLegRoll
				{
					OFFSET 0.000000 -0.000004 22.782799
					CHANNELS 3 Xrotation Yrotation Zrotation
					JOINT RightFoot
					{
						OFFSET 0.000000 -0.000004 18.962906
						CHANNELS 3 Xrotation Yrotation Zrotation
						JOINT RightToeBase
						{
							OFFSET 0.000000 0.000000 15.852005
							CHANNELS 3 Xrotation Yrotation Zrotation
							End Site
							{
								OFFSET 0.006718 0.884888 7.677002
							}
						}
					}
				}
			}
		}
	}
	JOINT LeftUpLeg
	{
		OFFSET 6.914162 1.063580 -1.267883
		CHANNELS 3 Xrotation Yrotation Zrotation
		JOINT LeftUpLegRoll
		{
			OFFSET 0.000000 -0.000004 18.337898
			CHANNELS 3 Xrotation Yrotation Zrotation
			JOINT LeftLeg
			{
				OFFSET 0.000000 -0.000004 22.708405
				CHANNELS 3 Xrotation Yrotation Zrotation
				JOINT LeftLegRoll
				{
					OFFSET 0.000000 -0.000004 22.993393
					CHANNELS 3 Xrotation Yrotation Zrotation
					JOINT LeftFoot
					{
						OFFSET 0.000000 -0.000004 18.752197
						CHANNELS 3 Xrotation Yrotation Zrotation
						JOINT LeftToeBase
						{
							OFFSET 0.000000 0.000000 15.852005
							CHANNELS 3 Xrotation Yrotation Zrotation
							End Site
							{
								OFFSET -0.030113 0.884888 7.677017
							}
						}
					}
				}
			}
		}
	}
}
MOTION
Frames: 12
Frame Time: 0.041667
51.689404 -1.197205 56.323586 -30.443540 -2.588044 22.314230 3.353811 -0.041692 -1.682077 10.708559 -0.190507 -3.355325 12.352503 -0.230678 -3.352915 29.189882 -2.678936 -4.384682 -16.226108 -7.242891 -4.862195 57.517870 -94.617695 52.740580 77.762824 -63.527733 31.891973 0.000001 -0.000001 -0.000000 60.157151 -14.218010 10.616517 0.000008 0.000003 -3.000001 -5.000081 -7.998676 -0.000039 31.086523 73.283531 -31.698085 -79.171824 110.642911 71.352001 0.000008 -0.000005 -0.000002 55.810398 3.617528 0.713855 0.000017 -0.000003 3.000001 -4.999687 7.999716 -0.000003 -50.677384 -161.802346 13.276124 179.999964 0.000005 -1.384994 83.980263 2.940114 -0.833372 -0.000006 0.000005 1.957500 76.921508 6.330095 3.267045 25.456854 -7.355622 -0.000015 -57.005288 179.870942 -4.777411 -0.000020 -0.000006 -2.833711 -95.754150 -6.399464 -4.749963 0.000001 0.000003 -2.974719 76.042880 -9.161189 5.594067 25.486248 7.355608 -0.008168 
51.696205 -1.203781 56.320595 -30.438417 -2.591148 22.309718 3.360740 -0.042637 -1.684220 10.722361 -0.193314 -3.359264 12.366309 -0.233591 -3.356816 29.185532 -2.575456 -4.386947 -16.200205 -7.322144 -4.856226 58.324488 -94.583196 53.552552 77.981636 -63.533252 32.082877 0.000000 0.000002 -0.000001 60.180872 -14.204631 10.607893 0.000007 0.000006 -3.000001 -5.000074 -7.998676 -0.000037 31.008700 73.301904 -31.611246 -79.165806 110.640076 71.379664 0.000008 -0.000005 -0.000003 55.875954 3.622245 0.714999 0.000016 -0.000003 3.000000 -4.999687 7.999716 -0.000003 -50.687445 -161.808151 13.264474 179.999964 0.000005 -1.384993 83.975250 2.945833 -0.829741 -0.000006 0.000005 1.957630 76.922458 6.327649 3.276013 25.456856 -7.355622 -0.000015 -57.008686 179.873127 -4.784661 -0.000020 -0.000001 -2.833781 -95.758207 -6.398797 -4.751144 0.000000 0.000003 -2.974723 76.046527 -9.161062 5.594578 25.486146 7.355618 -0.008166 
51.685303 -1.197189 56.311302 -30.433182 -2.594161 22.305572 3.367550 -0.043646 -1.686293 10.735960 -0.196254 -3.363051 12.379910 -0.236639 -3.360559 29.181587 -2.472354 -4.389385 -16.173519 -7.401612 -4.850360 59.132424 -94.550145 54.365792 78.196971 -63.538395 32.270690 -0.000001 -0.000002 -0.000000 60.204716 -14.191029 10.599140 0.000009 0.000005 -2.999999 -5.000080 -7.998676 -0.000038 30.935600 73.320926 -31.529270 -79.163197 110.637405 71.410304 0.000005 -0.000006 -0.000003 55.940308 3.627120 0.716036 0.000018 -0.000004 3.000001 -4.999689 7.999716 -0.000003 -50.697007 -161.813793 13.253504 179.999964 0.000005 -1.384994 83.970230 2.951536 -0.826212 -0.000005 0.000005 1.957790 76.923496 6.325162 3.285167 25.456853 -7.355622 -0.000015 -57.012071 179.874780 -4.790450 -0.000020 -0.000004 -2.833869 -95.762681 -6.398140 -4.753352 0.000002 0.000003 -2.974722 76.050639 -9.160909 5.595230 25.486052 7.355611 -0.008169 
51.683899 -1.183521 56.314091 -30.428056 -2.597099 22.301860 3.374277 -0.044694 -1.688317 10.749362 -0.199288 -3.366717 12.393309 -0.239783 -3.364180 29.177755 -2.369520 -4.391939 -16.146352 -7.481215 -4.844559 59.945668 -94.518343 55.184288 78.409540 -63.543360 32.455976 -0.000001 -0.000000 -0.000000 60.228458 -14.177236 10.590223 0.000008 0.000006 -3.000000 -5.000078 -7.998676 -0.000038 30.865601 73.340311 -31.450480 -79.163334 110.634844 71.443430 0.000007 -0.000005 -0.000002 56.003976 3.632092 0.716983 0.000017 -0.000003 3.000000 -4.999688 7.999716 -0.000003 -50.706532 -161.818697 13.242198 179.999964 0.000006 -1.384993 83.965114 2.957254 -0.822679 -0.000007 0.000005 1.957970 76.924555 6.322699 3.294423 25.456854 -7.355623 -0.000015 -57.015363 179.876952 -4.796651 -0.000020 -0.000001 -2.833980 -95.767052 -6.397583 -4.754580 -0.000001 0.000002 -2.974719 76.054908 -9.160823 5.595991 25.485948 7.355609 -0.008162 
51.690403 -1.180260 56.319691 -30.422831 -2.600017 22.298266 3.380954 -0.045770 -1.690307 10.762668 -0.202376 -3.370313 12.406613 -0.242983 -3.367749 29.174234 -2.266842 -4.394550 -16.118912 -7.560898 -4.838760 60.767032 -94.487621 56.010864 78.620696 -63.547998 32.640036 -0.000001 -0.000001 0.000002 60.252213 -14.163440 10.581398 0.000007 0.000005 -3.000000 -5.000081 -7.998677 -0.000039 30.797320 73.359927 -31.373466 -79.164515 110.632208 71.477424 0.000005 -0.000005 -0.000004 56.067158 3.637130 0.717883 0.000017 -0.000004 3.000001 -4.999687 7.999716 -0.000002 -50.715951 -161.823574 13.231135 179.999964 0.000005 -1.384993 83.960087 2.962920 -0.819351 -0.000006 0.000005 1.958160 76.925682 6.320167 3.303972 25.456858 -7.355620 -0.000015 -57.018665 179.879684 -4.803449 -0.000020 -0.000003 -2.834109 -95.771663 -6.397068 -4.755808 0.000001 0.000003 -2.974722 76.059409 -9.160700 5.596769 25.485746 7.355614 -0.008151 
51.697708 -1.187843 56.315186 -30.417595 -2.602927 22.294782 3.387613 -0.046848 -1.692287 10.775967 -0.205478 -3.373892 12.419920 -0.246197 -3.371281 29.170816 -2.164192 -4.397178 -16.091396 -7.640598 -4.832910 61.597276 -94.457937 56.846315 78.831639 -63.552315 32.823990 0.000000 -0.000003 0.000000 60.276037 -14.149556 10.572501 0.000009 0.000006 -3.000001 -5.000078 -7.998678 -0.000038 30.729171 73.379482 -31.296586 -79.166018 110.629646 71.511691 0.000005 -0.000005 -0.000002 56.130235 3.642187 0.718755 0.000018 -0.000003 3.000000 -4.999687 7.999716 -0.000003 -50.725383 -161.828423 13.220059 179.999964 0.000005 -1.384993 83.955067 2.968594 -0.816019 -0.000005 0.000005 1.958360 76.926918 6.317623 3.313309 25.456858 -7.355622 -0.000015 -57.021950 179.881884 -4.809350 -0.000021 -0.000004 -2.834238 -95.776212 -6.396475 -4.758043 0.000000 0.000003 -2.974719 76.063917 -9.160598 5.597649 25.485645 7.355611 -0.008163 
51.689007 -1.184433 56.305302 -30.412466 -2.605851 22.291183 3.394301 -0.047918 -1.694292 10.789269 -0.208557 -3.377507 12.433220 -0.249388 -3.374861 29.167298 -2.061474 -4.399747 -16.064096 -7.720250 -4.826942 62.440804 -94.429093 57.695052 79.043457 -63.556228 33.008638 0.000001 -0.000000 0.000001 60.299881 -14.135730 10.563583 0.000009 0.000006 -2.999999 -5.000078 -7.998677 -0.000039 30.660176 73.399009 -31.218841 -79.166940 110.627037 71.545480 0.000007 -0.000005 -0.000001 56.193520 3.647221 0.719657 0.000018 -0.000004 3.000001 -4.999687 7.999716 -0.000003 -50.734546 -161.833928 13.209810 179.999964 0.000005 -1.384994 83.950040 2.974264 -0.812590 -0.000005 0.000005 1.958540 76.928052 6.315096 3.322754 25.456858 -7.355622 -0.000015 -57.025239 179.884069 -4.815371 -0.000021 0.000000 -2.834360 -95.780754 -6.395878 -4.760264 0.000001 0.000001 -2.974719 76.068322 -9.160524 5.598519 25.485550 7.355616 -0.008173 
51.653702 -1.153198 56.355385 -30.407244 -2.608814 22.287269 3.401052 -0.048959 -1.696332 10.802672 -0.211573 -3.381200 12.446626 -0.252511 -3.378506 29.163883 -1.958566 -4.402208 -16.037218 -7.799793 -4.820808 63.300916 -94.400987 58.560464 79.257160 -63.559828 33.195095 0.000001 -0.000003 -0.000003 60.323671 -14.122038 10.554716 0.000008 0.000005 -3.000001 -5.000078 -7.998675 -0.000036 30.588449 73.418134 -31.138296 -79.165922 110.624353 71.577507 0.000008 -0.000005 -0.000002 56.257403 3.652193 0.720576 0.000017 -0.000003 3.000001 -4.999687 7.999715 -0.000003 -50.744279 -161.838901 13.198249 179.999964 0.000005 -1.384994 83.944917 2.979982 -0.809052 -0.000006 0.000005 1.958720 76.929104 6.312633 3.331913 25.456858 -7.355621 -0.000015 -57.028641 179.886269 -4.821702 -0.000021 -0.000002 -2.834471 -95.785125 -6.395316 -4.761487 0.000001 0.000003 -2.974720 76.072577 -9.160412 5.599276 25.485440 7.355614 -0.008164 
51.668304 -1.154060 56.352592 -30.402111 -2.611860 22.283096 3.407889 -0.049949 -1.698416 10.816375 -0.214483 -3.385031 12.460325 -0.255529 -3.382296 29.160267 -1.855355 -4.404509 -16.010858 -7.879153 -4.814446 64.179934 -94.373578 59.444837 79.474018 -63.562908 33.384465 -0.000001 -0.000002 0.000001 60.347440 -14.108539 10.545787 0.000009 0.000007 -3.000000 -5.000078 -7.998674 -0.000037 30.512740 73.436725 -31.053643 -79.162719 110.621614 71.607696 0.000006 -0.000005 -0.000002 56.322198 3.657054 0.721584 0.000017 -0.000003 3.000001 -4.999689 7.999716 -0.000003 -50.753937 -161.844570 13.187151 179.999964 0.000005 -1.384993 83.939924 2.985677 -0.805520 -0.000006 0.000005 1.958871 76.930053 6.310193 3.341080 25.456854 -7.355623 -0.000015 -57.031936 179.887908 -4.827688 -0.000021 -0.000003 -2.834549 -95.789428 -6.394675 -4.762682 0.000002 0.000002 -2.974720 76.076559 -9.160238 5.599823 25.485343 7.355611 -0.008167 
51.695404 -1.179329 56.305485 -30.396893 -2.615003 22.278375 3.414870 -0.050875 -1.700588 10.830278 -0.217254 -3.389028 12.474231 -0.258406 -3.386257 29.156541 -1.751721 -4.406585 -15.985315 -7.958294 -4.807814 65.081601 -94.346749 60.351968 79.695228 -63.565572 33.577890 -0.000000 -0.000001 0.000002 60.371243 -14.095379 10.537168 0.000007 0.000006 -3.000001 -5.000079 -7.998675 -0.000039 30.431676 73.454627 -30.963512 -79.155356 110.618779 71.634150 0.000004 -0.000005 -0.000003 56.388174 3.661777 0.722682 0.000017 -0.000004 3.000000 -4.999687 7.999716 -0.000003 -50.764083 -161.850417 13.175286 179.999964 0.000005 -1.386004 83.934822 2.991438 -0.801781 -0.000006 0.000005 1.958990 76.930907 6.307771 3.350052 25.456854 -7.355622 -0.000015 -57.035430 179.889547 -4.834339 -0.000021 -0.000004 -2.834600 -95.793478 -6.393974 -4.763866 0.000001 0.000002 -2.974719 76.080084 -9.160102 5.600323 25.485242 7.355623 -0.008166 
51.679008 -1.162708 56.319786 -30.391774 -2.618273 22.273074 3.422024 -0.051720 -1.702849 10.844581 -0.219842 -3.393255 12.488430 -0.261097 -3.390444 29.152419 -1.647557 -4.408392 -15.960795 -8.037111 -4.800833 66.009776 -94.320452 61.285730 79.921669 -63.567649 33.775927 -0.000000 -0.000003 -0.000000 60.394964 -14.082542 10.528641 0.000008 0.000003 -2.999999 -5.000078 -7.998677 -0.000039 30.343607 73.471559 -30.866171 -79.143540 110.615754 71.656744 0.000008 -0.000006 -0.000003 56.455772 3.666307 0.723922 0.000016 -0.000003 3.000000 -4.999687 7.999716 -0.000003 -50.774574 -161.857124 13.163265 179.999964 0.000005 -1.386004 83.929761 2.997232 -0.797842 -0.000006 0.000005 1.959070 76.931672 6.305393 3.358737 25.456851 -7.355621 -0.000015 -57.038923 179.890640 -4.841038 -0.000021 -0.000005 -2.834609 -95.797221 -6.393160 -4.764048 0.000000 0.000004 -2.974722 76.082993 -9.159960 5.600478 25.485244 7.355617 -0.008164 
51.691902 -1.175861 56.299194 -30.386654 -2.621688 22.266890 3.429378 -0.052464 -1.705229 10.859179 -0.222211 -3.397754 12.503134 -0.263562 -3.394918 29.148088 -1.542755 -4.409854 -15.937490 -8.115582 -4.793486 66.967075 -94.294668 62.248821 80.154797 -63.569049 33.980195 0.000000 0.000001 -0.000002 60.418829 -14.070053 10.520335 0.000007 0.000003 -3.000001 -5.000079 -7.998676 -0.000038 30.247349 73.487453 -30.760437 -79.126136 110.612523 71.674455 0.000005 -0.000006 -0.000003 56.525146 3.670623 0.725330 0.000018 -0.000003 3.000000 -4.999688 7.999716 -0.000002 -50.785393 -161.864664 13.151077 179.999964 0.000006 -1.386004 83.924700 3.003055 -0.793700 -0.000007 0.000005 1.959100 76.932157 6.303142 3.367054 25.456858 -7.355622 -0.000015 -57.042530 179.891200 -4.847928 -0.000020 -0.000005 -2.834559 -95.800718 -6.392294 -4.764203 0.000001 0.000003 -2.974721 76.085282 -9.159764 5.600393 25.485345 7.355611 -0.008168 
